<svg width="256" height="256" viewBox="0 0 256 256" fill="none" xmlns="http://www.w3.org/2000/svg">
  <rect width="256" height="256" rx="52" fill="#07111F"/>
  <rect x="34" y="34" width="188" height="188" rx="28" fill="#0F2135" stroke="#8ECAE6" stroke-width="10"/>
  <path d="M68 170V88H123.5C146.972 88 162 99.217 162 117.5C162 129.74 154.421 138.297 142.612 142.418L165.5 170H141.5L121.592 146.223H90.5V170H68ZM90.5 128.805H119.807C130.852 128.805 138.5 124.379 138.5 116.43C138.5 108.48 130.852 104.055 119.807 104.055H90.5V128.805Z" fill="#ECF3F9"/>
  <path d="M177 74L193.5 90.5L181.5 102.5L165 86L177 74Z" fill="#FFB703"/>
  <path d="M182.5 101L194 112.5L163 143.5L151.5 132L182.5 101Z" fill="#FB8500"/>
  <circle cx="173" cy="164" r="23" fill="#219EBC"/>
  <path d="M173 149L177.49 158.51L188 160.07L180.5 167.39L182.27 178L173 172.9L163.73 178L165.5 167.39L158 160.07L168.51 158.51L173 149Z" fill="#ECF3F9"/>
</svg>
